<svg width="77" height="94" viewBox="0 0 77 94" fill="none" xmlns="http://www.w3.org/2000/svg"><path d="M75.279 80.572L46.927 32.668V8.692a4.299 4.299 0 002.923-4.066A4.297 4.297 0 0045.558.333H30.946a4.297 4.297 0 00-4.293 4.293 4.299 4.299 0 002.923 4.066v23.976L1.225 80.572c-1.608 2.716-1.634 5.974-.071 8.716 1.563 2.742 4.38 4.379 7.537 4.379h59.122c3.156 0 5.973-1.637 7.536-4.379 1.563-2.742 1.537-6-.07-8.716zM30.946 3.073h14.612c.856 0 1.552.697 1.552 1.553s-.696 1.552-1.552 1.552H30.946a1.554 1.554 0 01-1.553-1.552c0-.856.697-1.553 1.553-1.553zm42.023 84.858a5.872 5.872 0 01-5.156 2.996H8.69a5.872 5.872 0 01-5.157-2.996 5.871 5.871 0 01.048-5.963L32.125 33.74a1.37 1.37 0 00.19-.698V8.918h11.873v24.125c0 .246.066.486.19.698l28.543 48.227a5.872 5.872 0 01.048 5.963z" fill="#D24B5A"/><path d="M33.868 49.831h8.767a1.37 1.37 0 000-2.74h-8.767a1.37 1.37 0 000 2.74zM33.868 57.137h8.767a1.37 1.37 0 000-2.74h-8.767a1.37 1.37 0 000 2.74zM33.868 64.443h8.767a1.37 1.37 0 000-2.74h-8.767a1.37 1.37 0 000 2.74zM62.042 69.681a1.37 1.37 0 00-1.179-.672H15.641a1.37 1.37 0 00-1.179.672L6.255 83.55c-.533.9-.541 1.936-.023 2.844a2.765 2.765 0 002.459 1.43h59.122c1.045 0 1.941-.522 2.459-1.43a2.765 2.765 0 00-.023-2.844l-8.207-13.868zM29.58 71.75c-.002.03-.005.06-.005.091 0 .856-.696 1.553-1.552 1.553a1.554 1.554 0 01-1.553-1.553c0-.03-.002-.06-.005-.091h3.115zm38.311 13.287c-.015.026-.027.041-.024.042a.261.261 0 01-.055.004H8.69l-.046-.001h-.002a.255.255 0 01-.031-.045c-.015-.026-.022-.044-.024-.041a.245.245 0 01.024-.05l7.81-13.196h7.314c-.002.03-.005.06-.005.091a4.297 4.297 0 004.293 4.293 4.297 4.297 0 004.292-4.293c0-.03-.003-.06-.005-.091h27.77l7.81 13.195c.015.025.021.04.024.043a.251.251 0 01-.023.05z" fill="#D24B5A"/><path d="M42.637 74.854a4.297 4.297 0 00-4.293 4.292 4.297 4.297 0 004.293 4.292 4.297 4.297 0 004.292-4.292 4.297 4.297 0 00-4.292-4.292zm0 5.845a1.554 1.554 0 01-1.553-1.553c0-.856.697-1.552 1.553-1.552s1.552.696 1.552 1.552c0 .856-.696 1.553-1.552 1.553zM54.33 74.854h-.003a1.37 1.37 0 10.002 2.74 1.37 1.37 0 100-2.74zM32.411 79.237h-.002a1.37 1.37 0 10.002 2.74 1.37 1.37 0 000-2.74zM19.26 76.315h-.002a1.37 1.37 0 10.002 2.74 1.37 1.37 0 100-2.74z" fill="#D24B5A"/></svg>
