<svg width="88" height="88" viewBox="0 0 88 88" fill="none" xmlns="http://www.w3.org/2000/svg"><path d="M25.223 23.778h17.334a1.444 1.444 0 100-2.889H25.223a1.444 1.444 0 100 2.89zM33.891 46.89H22.335a1.444 1.444 0 100 2.89h11.556a1.444 1.444 0 100-2.89zM29.557 39.668c0-.797-.646-1.444-1.444-1.444h-8.668a1.444 1.444 0 100 2.888h8.668c.798 0 1.444-.647 1.444-1.444zM19.445 32.445h20.223a1.444 1.444 0 100-2.889H19.445a1.444 1.444 0 100 2.89zM45.447 46.89h-5.778a1.444 1.444 0 100 2.89h5.778a1.444 1.444 0 100-2.89zM66.06 57.89a1.445 1.445 0 000 2.042l3.066 3.066a1.44 1.44 0 002.043 0 1.445 1.445 0 000-2.043l-3.064-3.065a1.447 1.447 0 00-2.044 0zM85.22 75.007L75.099 64.886a1.438 1.438 0 00-1.021-.423h-.002c-.383 0-.75.153-1.023.424l-4.073 4.097c-.563.566-.56 1.48.006 2.042.567.564 1.48.562 2.042-.005l3.052-3.069 9.1 9.098a4.31 4.31 0 011.269 3.064 4.307 4.307 0 01-1.27 3.063 4.338 4.338 0 01-6.127.002L59.934 66.062a1.446 1.446 0 00-2.043 2.044L75.008 85.22a7.192 7.192 0 005.105 2.112c1.85 0 3.7-.705 5.108-2.112a7.18 7.18 0 002.116-5.107 7.177 7.177 0 00-2.116-5.107z" fill="#D24B5A"/><path d="M70.002 35.334C70.002 16.22 54.449.667 35.334.667S.666 16.219.666 35.334c0 19.115 15.553 34.668 34.668 34.668S70.002 54.45 70.002 35.334zm-34.668 31.78c-17.523 0-31.779-14.257-31.779-31.78 0-17.523 14.256-31.779 31.78-31.779 17.522 0 31.778 14.256 31.778 31.78 0 17.522-14.256 31.778-31.779 31.778z" fill="#D24B5A"/><path d="M35.335 6.444c-15.93 0-28.89 12.96-28.89 28.89s12.96 28.89 28.89 28.89 28.89-12.96 28.89-28.89-12.96-28.89-28.89-28.89zm0 54.891c-14.337 0-26-11.664-26-26 0-14.337 11.663-26.002 26-26.002s26 11.665 26 26.001c0 14.337-11.663 26.001-26 26.001z" fill="#D24B5A"/><path d="M51.225 38.223H33.891a1.444 1.444 0 100 2.89h17.334a1.444 1.444 0 100-2.89zM51.225 29.556h-5.778a1.444 1.444 0 100 2.89h5.778a1.444 1.444 0 100-2.89z" fill="#D24B5A"/></svg>
