<svg width="88" height="88" viewBox="0 0 88 88" fill="none" xmlns="http://www.w3.org/2000/svg"><path d="M80.035 75.017V31.228a1.368 1.368 0 10-2.737 0v43.79a1.368 1.368 0 102.737 0zM32.14 66.35H19.368a5.023 5.023 0 00-5.017 5.018v10.948c0 .82.198 1.596.548 2.28H8.421a1.368 1.368 0 100 2.737H32.14a5.023 5.023 0 005.018-5.017V71.368a5.023 5.023 0 00-5.018-5.017zm2.28 15.966a2.283 2.283 0 01-2.28 2.28H19.368a2.283 2.283 0 01-2.28-2.28v-5.93h14.14a1.368 1.368 0 100-2.737h-14.14v-2.28a2.283 2.283 0 012.28-2.281H32.14a2.283 2.283 0 012.281 2.28v10.948zM3.86 84.597H2.035a1.368 1.368 0 100 2.736H3.86a1.368 1.368 0 100-2.736z" fill="#D24B5A"/><path d="M75.017 17.088h-1.824V5.684A5.023 5.023 0 0068.175.667H61.79a5.023 5.023 0 00-5.017 5.017v11.404h-1.825a12.272 12.272 0 00-12.145 10.265 1.369 1.369 0 102.7.452 9.543 9.543 0 019.445-7.98h20.07c5.282 0 9.58 4.297 9.58 9.578v52.913a2.283 2.283 0 01-2.281 2.28H60.42a1.368 1.368 0 100 2.737h21.895a5.023 5.023 0 005.017-5.017V29.403c0-6.79-5.525-12.315-12.316-12.315zm-4.561 0H59.509V5.684a2.283 2.283 0 012.28-2.28h6.386a2.283 2.283 0 012.281 2.28v11.404z" fill="#D24B5A"/><path d="M49.018 53.58h-.456V36.701a5.023 5.023 0 00-5.018-5.017h-3.649a5.023 5.023 0 00-5.018 5.017v16.877h-.456c-4.778 0-8.666 3.888-8.666 8.667a1.368 1.368 0 002.736 0c0-3.27 2.66-5.93 5.93-5.93h14.597c3.27 0 5.93 2.66 5.93 5.93v20.07a2.283 2.283 0 01-2.281 2.28H40.351a1.368 1.368 0 100 2.737h12.316a5.023 5.023 0 005.017-5.017v-20.07c0-4.779-3.887-8.667-8.666-8.667zm-3.193 0h-8.21V36.701a2.283 2.283 0 012.28-2.28h3.65a2.283 2.283 0 012.28 2.28v16.877z" fill="#D24B5A"/><path d="M50.842 78.667V62.246a1.368 1.368 0 10-2.737 0v16.42a1.368 1.368 0 102.737 0z" fill="#D24B5A"/></svg>
