<svg width="26" height="27" viewBox="0 0 26 27" fill="none" xmlns="http://www.w3.org/2000/svg"><path d="M13 0C5.82 0 0 6.045 0 13.5S5.82 27 13 27s13-6.045 13-13.5S20.18 0 13 0zm6.865 19.698l-1.04 1.081c-.187.193-.73.313-.748.313-3.293.03-6.464-1.313-8.793-3.733-2.336-2.427-3.631-5.731-3.597-9.162 0-.002.12-.55.305-.742l1.041-1.08c.381-.398 1.113-.577 1.625-.4l.22.076c.51.178 1.047.765 1.188 1.306l.523 1.995c.142.542-.049 1.314-.43 1.71l-.694.721c.682 2.623 2.664 4.682 5.19 5.392l.695-.722c.383-.397 1.125-.595 1.646-.448l1.922.545c.52.149 1.085.703 1.257 1.233l.073.23c.17.532-.002 1.291-.383 1.685z" fill="#fff"/></svg>
