<svg width="360" height="110" fill="none" xmlns="http://www.w3.org/2000/svg"><path d="M.385 51.214H.128V0h.257c5.39 0 9.883 4.492 9.883 9.883v31.319c0 5.52-4.492 10.012-9.883 10.012zm23.745 57.888H13.99V0h.257c5.39 0 9.883 4.492 9.883 9.883v99.219zm3.722 0h10.14V0h-.256c-5.391 0-9.883 4.492-9.883 9.883v99.219h-.001zM1.669 110H0V58.915h1.669a8.6 8.6 0 018.6 8.6V101.4a8.599 8.599 0 01-8.6 8.6zm94.34-39.918c-1.412.385-3.209.513-5.52.513h-6.032V46.079h5.39c6.29 0 10.141 1.797 10.141 6.161 0 1.669-.642 3.08-1.797 4.107-.513.386-1.155.77-1.925 1.156 1.155.385 2.053.898 2.823 1.54 1.412 1.284 2.183 2.824 2.183 4.62 0 1.541-.514 2.953-1.412 4.236-1.156 1.156-2.31 1.797-3.851 2.183zm-2.824-21.307c-.513-.257-1.54-.514-3.209-.514h-.77v8.215h.129c2.438 0 3.85-.385 4.492-1.027.642-.513 1.027-1.54 1.027-3.209 0-1.155-.129-1.925-.385-2.439a2.68 2.68 0 00-1.284-1.026zm-3.209 10.011h-.641v9.37h2.181c1.797 0 2.824-.257 3.466-.898.77-.77 1.155-1.926 1.155-3.594 0-1.797-.513-2.952-1.283-3.594-.899-.899-2.31-1.284-4.878-1.284zm26.955-10.525h-2.311v8.343h6.546v2.182h-6.546v9.37h10.14v2.182h-14.889V45.822h14.889v2.182h-7.829v.257zm31.318 22.334c-1.411-3.466-1.925-4.62-1.925-4.62l-1.54-3.852h-7.445l-3.337 8.472h-2.695l10.14-24.516h1.54l10.397 24.516h-5.135zm-7.316-17.841l-2.824 7.06h5.776l-2.952-7.06zm38.378 14.504c-.77 1.026-1.926 1.797-3.337 2.438-1.412.514-2.953.899-4.75.899-2.053 0-3.979-.385-5.39-1.155-1.541-.77-2.568-1.669-3.338-2.953-.641-1.155-1.027-2.823-.898-4.749l.128-2.31V46.079h4.749v16.687c0 .898.129 1.54.129 1.925.128.898.641 1.668 1.54 2.31.898.642 2.182 1.027 3.851 1.027a9.803 9.803 0 003.465-.642c1.027-.513 1.797-1.027 2.311-1.669.513-.641.898-1.412.898-2.053.128-.77.385-2.054.385-3.723V46.464h2.182v13.734c0 1.925-.128 3.466-.385 4.364-.128.77-.77 1.797-1.54 2.696zm27.468-18.997h-3.08v22.334h-4.749V48.262h-9.627l.129-2.183h23.874v2.182h-6.547zM230.14 60.84v9.627h-4.75v-9.498l-9.369-15.018h5.904l7.059 12.194 7.06-12.194h3.08l-8.984 14.89v-.001zm16.814 4.108v-3.594h8.728v3.594h-8.728zm34.399-16.687h-3.081v22.334h-4.749V48.262h-9.627l.129-2.183h23.874v2.182h-6.546zm17.2 0h-2.311v8.343h6.546v2.182h-6.546v9.37h10.14v2.182h-14.889V45.822h14.889v2.182h-7.829v.257zm17.969 18.997c-2.182-2.182-3.209-5.135-3.209-8.6 0-2.31.514-4.492 1.541-6.546 1.027-2.054 2.438-3.594 4.235-4.621 1.797-1.027 3.723-1.412 5.905-1.412 1.797 0 3.337.385 4.877 1.027 1.412.642 2.439 1.412 3.337 2.567l.129.642-1.54 1.412c-.771-1.155-1.156-1.54-1.541-1.926-1.412-1.026-2.952-1.54-4.621-1.54-2.053 0-3.722.77-5.005 2.567-1.155 1.669-1.926 4.236-1.926 7.701 0 3.21.642 5.648 2.054 7.188 1.412 1.669 3.081 2.44 5.006 2.44 1.027 0 2.182-.258 3.337-.771.899-.385 1.54-1.027 2.696-2.695l1.797 1.796c-2.568 2.824-5.263 4.108-8.472 4.108-3.594 0-6.418-1.155-8.6-3.337zm38.122 3.337V58.786h-10.91v11.809h-4.75V46.079h4.75v10.525h10.91V46.08h4.749v24.516h-4.749v-.001z" fill="#fff"/></svg>