<svg width="114" height="73" viewBox="0 0 114 73" fill="none" xmlns="http://www.w3.org/2000/svg">
	<path
		d="M50.743 21.1h-1.056V0h1.056c1.706 0 3.128 1.42 3.128 3.125v14.85a3.128 3.128 0 01-3.128 3.125zM59.6 45.04h-4.185V0h1.056C58.178 0 59.6 1.42 59.6 3.124V45.04zm1.544 0h4.184V0h-1.056c-1.707 0-3.128 1.42-3.128 3.124V45.04zm-9.954.365h-1.503v-21.1h1.503a2.72 2.72 0 012.722 2.72v15.702c-.04 1.461-1.26 2.678-2.722 2.678zM25.555 70.726h-1.341v-4.017h1.056c.325 0 .61.04.772.122a.727.727 0 01.406.365c.082.162.163.324.163.527 0 .406-.203.69-.61.852.285.041.529.163.691.366a.994.994 0 01.244.649c0 .203-.04.406-.163.568a1.45 1.45 0 01-.447.406c-.203.121-.446.162-.771.162zm-.285-3.53h-.487v1.217h.365c.325 0 .529-.04.65-.162a.651.651 0 00.204-.447c0-.405-.244-.608-.732-.608zm.04 1.745h-.527v1.257h.568c.326 0 .529-.04.65-.08.122-.041.204-.122.285-.244.081-.122.122-.203.122-.325a.46.46 0 00-.122-.324c-.081-.081-.163-.163-.325-.244-.163-.081-.366-.04-.65-.04zm4.388.486H27.83c0 .243.082.446.244.608a.827.827 0 00.61.244c.325 0 .65-.122.934-.325v.528a1.374 1.374 0 01-.487.243c-.163.04-.325.081-.57.081-.284 0-.527-.04-.69-.162a1.73 1.73 0 01-.447-.487c-.122-.203-.162-.446-.162-.69 0-.405.122-.73.325-.974.244-.243.528-.365.894-.365.365 0 .65.122.853.365.203.244.325.569.325.974v-.04h.04zm-1.828-.325h1.34a.672.672 0 00-.202-.487c-.122-.121-.244-.162-.447-.162s-.325.04-.447.162a.925.925 0 00-.244.487zm4.063 0v1.136c0 .082.04.122.081.122.081 0 .163-.04.285-.122v.325a2.294 2.294 0 01-.285.162c-.081.04-.162.04-.244.04-.243 0-.365-.08-.406-.283a1.104 1.104 0 01-.69.243c-.204 0-.325-.04-.447-.162a.651.651 0 01-.204-.446.61.61 0 01.163-.447c.122-.121.284-.243.528-.324l.65-.244v-.121c0-.325-.162-.487-.487-.487-.285 0-.57.162-.854.446v-.568c.204-.244.488-.365.894-.365.285 0 .528.08.69.243.041.04.123.122.163.203a.57.57 0 01.082.243c.08.041.08.203.08.406zm-.528 1.096v-.771l-.366.122c-.162.08-.284.121-.366.202a.368.368 0 00-.121.285c0 .121.04.202.122.284a.37.37 0 00.284.121.969.969 0 00.447-.243zm3.047.527v-.324a2.266 2.266 0 01-.366.284c-.163.081-.285.08-.447.08a.82.82 0 01-.447-.12 1.236 1.236 0 01-.325-.325c-.081-.163-.122-.366-.122-.73v-1.502h.528v1.501c0 .284.04.487.122.568.081.122.203.163.406.163.244 0 .447-.122.65-.366v-1.866h.529v2.637h-.528zm.894-2.232l.975-.973v.527h.853v.487h-.853v1.298c0 .285.122.447.365.447.203 0 .366-.081.61-.203v.487a1.194 1.194 0 01-.65.162.998.998 0 01-.61-.203l-.122-.121c-.04-.041-.04-.122-.08-.203-.041-.081-.041-.244-.041-.487v-1.177h-.447v-.04zm3.982-.446h.568l-1.868 3.977h-.57l.895-1.907-1.016-2.07h.61l.73 1.502.65-1.502zm.812 1.096h1.422v.568H40.14v-.568zm1.747-2.435h3.372v.528h-1.382v3.49h-.609v-3.53h-1.381v-.488zm6.093 2.719h-1.868a.827.827 0 00.853.852c.325 0 .65-.122.934-.325v.528a1.375 1.375 0 01-.487.243c-.163.04-.325.081-.569.081-.284 0-.528-.04-.69-.162a1.732 1.732 0 01-.447-.487c-.122-.203-.163-.446-.163-.69 0-.405.122-.73.325-.974.244-.243.528-.365.894-.365.365 0 .65.122.853.365.203.244.325.569.325.974v-.04h.04zm-1.868-.325h1.34a.672.672 0 00-.203-.487c-.122-.121-.243-.162-.447-.162-.203 0-.325.04-.447.162a.925.925 0 00-.243.487zm4.388.974v.528c-.244.08-.529.162-.773.162-.406 0-.73-.122-.975-.365-.243-.244-.365-.568-.365-.974s.122-.73.365-1.014a1.29 1.29 0 01.935-.366c.122 0 .244 0 .366.04.121.041.243.082.406.163v.568c-.285-.162-.528-.243-.732-.243-.243 0-.446.081-.568.243-.163.163-.244.365-.244.65 0 .284.081.486.244.649.162.162.365.243.65.243.203-.08.447-.162.69-.284zm.609-3.368h.528v1.704a.949.949 0 01.813-.405c.162 0 .325.04.487.121a.958.958 0 01.325.365c.081.163.122.366.122.69v1.502h-.528v-1.623c0-.203-.04-.366-.163-.447-.08-.121-.203-.162-.365-.162-.122 0-.203.04-.325.081-.082.04-.203.162-.325.284v1.907h-.528v-4.017h-.041zm4.671 0h.57v3.977c0 .365-.04.649-.122.811-.081.163-.203.325-.366.406-.162.122-.366.162-.61.162h-.202l-.122-.527h.162c.163 0 .285 0 .366-.04a.49.49 0 00.203-.204c.04-.08.081-.324.081-.649v-3.936h.04zm3.048 2.394v1.136c0 .082.04.122.081.122.081 0 .163-.04.285-.122v.325a2.329 2.329 0 01-.285.162c-.081.04-.162.04-.244.04-.243 0-.365-.08-.406-.283a1.104 1.104 0 01-.69.243c-.204 0-.326-.04-.447-.162a.651.651 0 01-.203-.446.61.61 0 01.162-.447c.122-.121.284-.243.528-.324l.65-.244v-.121c0-.325-.162-.487-.487-.487-.285 0-.57.162-.853.446v-.568c.203-.244.487-.365.893-.365.285 0 .528.08.69.243.042.04.123.122.163.203a.57.57 0 01.082.243c.08.041.08.203.08.406zm-.528 1.096v-.771l-.366.122c-.162.08-.284.121-.365.202a.368.368 0 00-.122.285c0 .121.04.202.121.284a.37.37 0 00.285.121.97.97 0 00.447-.243zm1.34 1.866v-3.976h.935c.488 0 .853.122 1.097.365s.406.568.406.974-.122.73-.365.974a1.288 1.288 0 01-.935.365c-.162 0-.365-.04-.569-.122v1.42h-.568zm.894-3.49h-.365v1.624c.162.081.325.122.487.122a.827.827 0 00.61-.244c.162-.162.244-.406.244-.65a.817.817 0 00-.122-.445c-.082-.122-.163-.244-.285-.284-.122-.122-.325-.122-.569-.122zm3.738.528v1.136c0 .082.04.122.081.122.081 0 .163-.04.284-.122v.325a2.329 2.329 0 01-.284.162c-.081.04-.162.04-.244.04-.243 0-.365-.08-.406-.283a1.104 1.104 0 01-.69.243c-.204 0-.326-.04-.448-.162a.651.651 0 01-.203-.446.61.61 0 01.163-.447c.122-.121.284-.243.528-.324l.65-.244v-.121c0-.325-.163-.487-.488-.487-.284 0-.568.162-.853.446v-.568c.203-.244.488-.365.894-.365.285 0 .528.08.69.243.041.04.123.122.163.203.04.081.082.162.082.243 0 .082.08.203.08.406zm-.528 1.096v-.771l-.366.122c-.163.08-.284.121-.366.202a.368.368 0 00-.121.285c0 .121.04.202.121.284a.37.37 0 00.285.121.969.969 0 00.447-.243zm1.909-2.151v.325c.244-.244.488-.406.813-.406a.82.82 0 01.447.122.959.959 0 01.325.365c.081.162.122.365.122.69v1.501h-.528v-1.501c0-.284-.04-.447-.122-.568-.081-.122-.203-.163-.406-.163-.244 0-.447.122-.61.366v1.866h-.528v-2.637h.487v.04zm7.597 1.745v.65c-.406.243-.893.324-1.462.324-.447 0-.813-.081-1.138-.284-.325-.162-.568-.447-.73-.73-.163-.325-.285-.65-.285-1.015 0-.568.203-1.055.61-1.46.405-.406.934-.61 1.543-.61.406 0 .894.122 1.422.325v.609c-.488-.284-.934-.406-1.381-.406-.447 0-.853.162-1.138.446a1.5 1.5 0 00-.447 1.096c0 .446.163.812.447 1.096.284.284.69.405 1.138.405.447 0 .934-.162 1.422-.446zm1.87-1.745c.406 0 .73.122 1.015.406.285.244.407.568.407.974 0 .365-.122.69-.407.933-.284.244-.61.365-1.015.365-.407 0-.732-.121-.975-.365-.285-.243-.407-.568-.407-.974 0-.405.122-.69.407-.973.243-.203.568-.366.975-.366zm0 .487a.827.827 0 00-.61.244.825.825 0 00-.244.608c0 .244.082.447.244.609.163.162.366.243.65.243a.997.997 0 00.65-.243.825.825 0 00.244-.609.825.825 0 00-.244-.608c-.243-.163-.447-.244-.69-.244zm2.274 1.542c.082 0 .163.04.244.081.081.081.122.163.122.244 0 .08-.04.162-.122.243-.081.081-.162.081-.244.081a.577.577 0 01-.243-.08c-.082-.082-.082-.163-.082-.244 0-.081.041-.163.082-.244.04-.04.121-.081.243-.081zm.936 1.339v-.122c.08-.08.162-.162.162-.243 0-.081.04-.203.04-.325-.203-.04-.284-.203-.284-.365 0-.122.04-.203.122-.284.081-.081.162-.122.244-.122.122 0 .203.04.284.163a.684.684 0 01.122.405.969.969 0 01-.203.569 1.46 1.46 0 01-.488.324zm3.087-4.707h.568v3.49h1.788v.527h-2.397v-4.017h.04zm2.438 1.785l.974-.973v.527h.854v.487h-.854v1.298c0 .285.122.447.366.447.203 0 .366-.081.61-.203v.487a1.194 1.194 0 01-.65.162.998.998 0 01-.61-.203l-.122-.121c-.04-.041-.04-.122-.081-.203-.04-.081-.04-.244-.04-.487v-1.177h-.448v-.04zm4.062-1.785h.528v4.017h-1.137c-.406 0-.69-.121-.935-.365-.243-.243-.365-.568-.365-.974s.122-.69.365-.974c.244-.243.57-.365.935-.365.162 0 .365.04.569.122v-1.46h.04zm0 3.57v-1.663a1.083 1.083 0 00-.487-.121c-.244 0-.488.08-.61.243-.162.162-.243.406-.243.69 0 .284.08.487.203.608.081.082.162.163.243.163.082.04.244.04.488.04h.406v.04zm1.503-.202c.082 0 .163.04.245.081.08.081.121.163.121.244 0 .08-.04.162-.121.243-.082.081-.163.081-.244.081a.577.577 0 01-.244-.08c-.081-.082-.081-.163-.081-.244 0-.081.04-.163.081-.244a.577.577 0 01.244-.081zM4.794 62.651c-.569.162-1.34.203-2.275.203H0V52.71h2.235c2.6 0 4.184.73 4.184 2.556 0 .69-.244 1.258-.772 1.704-.244.203-.487.366-.812.447.487.162.893.365 1.178.649.61.527.894 1.177.894 1.948 0 .649-.204 1.258-.61 1.744a2.6 2.6 0 01-1.503.893zm-1.178-8.805c-.203-.122-.65-.203-1.34-.203H1.95v3.409h.04c1.016 0 1.585-.163 1.87-.406.284-.244.446-.65.446-1.299 0-.446-.08-.811-.203-1.014-.04-.244-.243-.406-.487-.487zm-1.34 4.139H1.99v3.895h.894c.73 0 1.178-.081 1.462-.365.325-.325.488-.771.488-1.501 0-.73-.203-1.218-.529-1.502-.365-.365-.975-.527-2.03-.527zm11.212-4.383h-.975v3.449h2.722v.933h-2.721v3.936h4.184v.933h-6.175V52.71h6.175v.934h-3.21v-.041zm12.92 9.251c-.568-1.42-.812-1.947-.812-1.947l-.65-1.583h-3.088l-1.34 3.53H19.38l4.184-10.144h.65l4.348 10.144h-2.154zm-3.006-7.344l-1.178 2.922h2.397l-1.219-2.922zm15.965 6.005a3.941 3.941 0 01-1.381 1.015c-.569.243-1.26.365-1.99.365-.895 0-1.626-.162-2.276-.446-.65-.325-1.097-.73-1.381-1.218-.285-.486-.447-1.176-.366-1.988l.081-.974V52.75h1.95v6.857c0 .366.041.609.082.812.08.365.284.69.65.974.365.284.894.405 1.584.405.528 0 1.016-.08 1.463-.284.447-.202.772-.446.975-.73.203-.284.365-.568.406-.852.04-.325.122-.852.122-1.583V52.71h.934v5.721c0 .811-.08 1.42-.162 1.826-.122.405-.406.852-.69 1.258zm11.376-7.912h-1.26v9.251h-1.95v-9.251h-3.94l.04-.933h9.913v.933h-2.803zm9.67 5.234v4.017h-1.95v-3.936l-3.9-6.248H57l2.925 5.072 2.925-5.072h1.3l-3.737 6.167zM67.4 60.54v-1.46h3.617v1.46H67.4zm14.22-6.938h-1.26v9.251h-1.95v-9.251h-3.94l.04-.933h9.913v.933H81.62zm7.191 0h-.975v3.449h2.722v.933h-2.722v3.936h4.184v.933h-6.175V52.71h6.176v.934h-3.21v-.041zm7.394 7.912c-.893-.933-1.34-2.11-1.34-3.57 0-.974.203-1.867.61-2.719.405-.852 1.015-1.501 1.746-1.907.731-.406 1.544-.609 2.438-.609.731 0 1.381.163 1.991.447.568.284 1.015.608 1.381 1.055l.04.284-.609.608c-.366-.486-.487-.649-.65-.77-.569-.447-1.219-.65-1.95-.65-.894 0-1.544.365-2.072 1.055-.488.73-.772 1.786-.772 3.206 0 1.339.284 2.313.853 3.002.569.69 1.26 1.015 2.113 1.015.447 0 .894-.122 1.381-.325.366-.162.65-.446 1.097-1.095l.731.73c-1.056 1.177-2.153 1.704-3.534 1.704-1.34-.122-2.52-.568-3.454-1.46zm15.845 1.339v-4.869h-4.51v4.87h-1.95V52.708h1.95v4.342h4.51v-4.382H114v10.144h-1.95v.04z" fill="#C30F23"/>
</svg>
