<svg width="26" height="27" fill="none" xmlns="http://www.w3.org/2000/svg"><path d="M25.417 20.85l-4.015-4.024c-.8-.799-2.124-.775-2.952.055l-2.023 2.027-.4-.222c-1.277-.71-3.025-1.682-4.865-3.527-1.845-1.85-2.816-3.605-3.526-4.886-.075-.136-.147-.266-.218-.39l1.358-1.36.667-.67c.83-.83.852-2.157.054-2.958L5.482.87C4.684.07 3.359.094 2.53.925L1.398 2.066l.031.03a6.563 6.563 0 00-.932 1.65 6.848 6.848 0 00-.415 1.671c-.53 4.406 1.478 8.432 6.93 13.895 7.534 7.552 13.607 6.982 13.869 6.954a6.77 6.77 0 001.673-.422 6.518 6.518 0 001.639-.93l.024.022 1.147-1.125c.827-.831.85-2.159.053-2.96z" fill="#5C5C5C"/></svg>