<svg width="60" height="60" fill="none" xmlns="http://www.w3.org/2000/svg"><circle cx="30" cy="30" r="30" fill="#5C5C5C"/><path d="M15.357 27.82c-.044-.8-.435-6.304-.435-6.304l-.03-.014-.028.014-.261 5.09s0 .085-.087.085c-.072 0-.087-.086-.087-.086l-.29-5.089-.029-.014-.029.014-.275 5.09s0 .085-.073.085c-.072 0-.072-.086-.072-.086l-.275-5.089-.03-.014-.028.014-.29 5.09s0 .085-.087.085-.087-.086-.087-.086l-.261-5.089-.03-.014-.028.014s-.391 5.504-.435 6.304c0 .072.03.129.102.143.246.072.811.386 1.174 1.258.39.9-.392 11.521-.61 13.823a2.048 2.048 0 00.943 1.887c.768-.515 1-1.315.942-1.887-.217-2.301-1-12.922-.609-13.823.348-.872.928-1.172 1.174-1.258.087-.014.13-.071.13-.143zm-2.392 15.138c.044-.443.087-.586.087-.586s-.072.743.015 1.13c.058.328.203.685.637 1.243-.623-.515-.782-1.258-.739-1.787zm2.174-15.052c-.246.072-.811.343-1.174 1.215 0 0 .16-.643.812-1.158.087-.071.319-.229.333-.4.03-.2.015-.543.015-1.372.058.743.101 1.343.116 1.572.014.071-.03.114-.102.143zM20.328 43.044c-.102-1.172-.377-6.004-.435-10.492.348-4.575.044-9.592.101-10.392.058-.872-.652-1.001-1.26.085-1.015 1.787-1.377 7.333-.102 10.164.015.071.03.1.044.157.304 1.344-.03 8.276-.232 10.478a2.048 2.048 0 00.942 1.887c.768-.5 1-1.315.942-1.887zm-1.71-20.198s.014-.129.16-.4c.361-.701.71-.93.97-.83-.26-.014-.478.2-.681.458-.26.343-.45.772-.45.772zm.319 9.891c-.145 0-.189-.157-.189-.214 0 0 .087.072.203.072h.797c.102 0 .102.142 0 .142h-.812zm.478 11.98c.435-.544.58-.901.637-1.244.088-.386.015-1.13.015-1.13s.058.143.087.586a2.028 2.028 0 01-.74 1.787zM35.448 30.2v7.095c-.428.071-1.384.2-2.582.2-1.213 0-2.155-.129-2.583-.2V30.2c0-.087.043-2.188 2.583-2.188 2.553 0 2.582 2.101 2.582 2.188zm-4.152-11.47s0 .432-.014.95h.428v-3.281h.614v3.28h2.111v-3.626h.157v-1.266h-.157v-.475h-2.097v.475h-.129v1.223h-.642v-1.223h.157v-.475h-.413v.46h-.157v1.267h.157v2.691h-.015zm5.037 4.936c.627.792.813 1.54.813 3.21V44c0 .619-1.912 1.137-4.28 1.137-2.369 0-4.28-.504-4.28-1.137V26.875c0-1.655.185-2.417.813-3.209.784-1.007 1.84-1.525 1.869-2.274.014-.244.014-.619.028-.993h.428v.95c0 .015-.014 1.065-.799 1.813l-.085.072c-.942.907-1.684 1.612-1.684 3.656v17.168l.614.245V26.89c0-1.785.556-2.317 1.498-3.21l.085-.086c.97-.935.985-2.216.985-2.274v-.95h2.111c0 .39.015.749.015.994.028.777 1.084 1.295 1.869 2.302zm-.5 6.476s0-2.561-2.967-2.561c-2.968 0-2.968 2.561-2.968 2.561v7.541s1.213.26 2.968.26c1.726 0 2.967-.26 2.967-.26v-7.54zm9.074 9.311v4.965h2.055v.26h-4.523v-.26h2.054v-4.965s0-1.266-.028-1.77c-.014-.504-1.484-.892-2.069-1.511-.47-.504-.899-1.022-.827-2.13.071-1.324.884-5.281.884-5.281h4.509s.799 3.957.884 5.281c.057 1.108-.342 1.612-.827 2.13-.585.619-2.055 1.007-2.069 1.511-.043.504-.043 1.77-.043 1.77zm2.283-6.95l-.457-3.455h-4.066l-.485 3.454h.328c-.228 3.21.528 3.54 1.627 4.044-.999-.791-1.142-2.475-1.013-4.044h4.066z" fill="#F6F6F6"/></svg>