<svg width="9" height="24" viewBox="0 0 9 24" fill="none" xmlns="http://www.w3.org/2000/svg">
<path d="M3.35661 6.82023C3.31313 6.01974 2.92181 0.516322 2.92181 0.516322L2.89282 0.502022L2.86384 0.516322L2.60295 5.60519C2.60295 5.60519 2.60296 5.69096 2.516 5.69096C2.44353 5.69096 2.42904 5.60519 2.42904 5.60519L2.13917 0.516322L2.11018 0.502022L2.0812 0.516322L1.80582 5.60519C1.80582 5.60519 1.80582 5.69096 1.73335 5.69096C1.66089 5.69096 1.66089 5.60519 1.66089 5.60519L1.38552 0.516322L1.35653 0.502022L1.32754 0.516322L1.03767 5.60519C1.03767 5.60519 1.03768 5.69096 0.950718 5.69096C0.863759 5.69096 0.863753 5.60519 0.863753 5.60519L0.602875 0.516322L0.573887 0.502022L0.544907 0.516322C0.544907 0.516322 0.153587 6.01974 0.110107 6.82023C0.110107 6.89171 0.139087 6.94888 0.211554 6.96318C0.45794 7.03465 1.02319 7.34913 1.38552 8.2211C1.77684 9.12166 0.994197 19.7425 0.776797 22.044C0.718823 22.6158 0.950717 23.4305 1.71886 23.9309C2.48701 23.4163 2.7189 22.6158 2.66093 22.044C2.44353 19.7425 1.66089 9.12166 2.05221 8.2211C2.40005 7.34913 2.97979 7.04895 3.22617 6.96318C3.31313 6.94888 3.35661 6.89171 3.35661 6.82023ZM0.965208 21.9582C1.00869 21.5151 1.05217 21.3721 1.05217 21.3721C1.05217 21.3721 0.979703 22.1154 1.06666 22.5014C1.12464 22.8302 1.26957 23.1875 1.70437 23.745C1.08116 23.2304 0.921728 22.4871 0.965208 21.9582ZM3.13921 6.906C2.89282 6.97747 2.32758 7.24907 1.96525 8.12104C1.96525 8.12104 2.12467 7.47778 2.77687 6.96318C2.86383 6.89171 3.09573 6.73447 3.11022 6.56293C3.1392 6.36281 3.12472 6.01973 3.12472 5.19065C3.18269 5.93396 3.22617 6.53434 3.24066 6.76305C3.25516 6.83452 3.21167 6.87741 3.13921 6.906Z" fill="#F6F6F6"/>
<path d="M8.32789 22.0439C8.22644 20.8717 7.95106 16.0402 7.89309 11.5517C8.24093 6.97739 7.93657 1.96 7.99455 1.1595C8.05252 0.287531 7.34234 0.158876 6.73363 1.24527C5.71909 3.03209 5.35677 8.57839 6.63218 11.4087C6.64667 11.4802 6.66116 11.5088 6.67566 11.566C6.98002 12.9097 6.64667 19.8425 6.44376 22.0439C6.38579 22.6157 6.61768 23.4305 7.38582 23.9308C8.15397 23.4305 8.38586 22.6157 8.32789 22.0439ZM6.61768 1.84564C6.61768 1.84564 6.63218 1.71699 6.77711 1.44539C7.13945 0.744958 7.48728 0.516238 7.74816 0.6163C7.48728 0.602005 7.26989 0.816426 7.06698 1.07373C6.8061 1.4168 6.61768 1.84564 6.61768 1.84564ZM6.93654 11.7375C6.7916 11.7375 6.74812 11.5803 6.74812 11.5231C6.74812 11.5231 6.83508 11.5946 6.95103 11.5946H7.74816C7.84961 11.5946 7.84961 11.7375 7.74816 11.7375H6.93654ZM7.41481 23.7164C7.84961 23.1732 7.99455 22.8158 8.05252 22.4727C8.13948 22.0868 8.06701 21.3435 8.06701 21.3435C8.06701 21.3435 8.12499 21.4864 8.15398 21.9295C8.21195 22.4584 8.05252 23.2018 7.41481 23.7164Z" fill="#F6F6F6"/>
</svg>
